<svg xmlns="http://www.w3.org/2000/svg" version="1.1" xmlns:xlink="http://www.w3.org/1999/xlink" xmlns:svgjs="http://svgjs.com/svgjs" viewBox="0 0 640 480" id="bot-svg">
    <g>
        <path d="m95.667169,257.000446l45.832331,0c0.000129,0 0.000247,0.000048 0.000327,0.000145c0.00009,0.000097 0.00014,0.000217 0.00014,0.000362l-0.000467,49.998579c0,5.522874 -4.104066,10.00005 -9.166681,10.00005l-45.832335,0l0,0c-0.000255,0 -0.000458,-0.000228 -0.000458,-0.000503l0.000458,-49.998579l0,0c0,-5.522876 4.104064,-10.000052 9.166685,-10.000052l0,-0.000002z" fill="#9dba5e" stroke-width="3" stroke="#d0dcae"></path>
        <path d="m507.387201,205.515002l45.832331,0c0.000129,0 0.000247,0.000048 0.000327,0.000145c0.00009,0.000097 0.00014,0.000217 0.00014,0.000362l-0.000467,49.998579c0,5.522874 -4.104066,10.00005 -9.166681,10.00005l-45.832335,0l0,0c-0.000255,0 -0.000458,-0.000228 -0.000458,-0.000503l0.000458,-49.998579l0,0c0,-5.522876 4.104064,-10.000052 9.166685,-10.000052l0,-0.000002z" fill="#2184b8" stroke-width="3" stroke="#5b9db5"></path>
        <path d="m506.667184,295.000438l45.832331,0c0.000129,0 0.000247,0.000048 0.000327,0.000145c0.00009,0.000097 0.00014,0.000217 0.00014,0.000362l-0.000467,49.998579c0,5.522874 -4.104066,10.00005 -9.166681,10.00005l-45.832335,0l0,0c-0.000255,0 -0.000458,-0.000228 -0.000458,-0.000503l0.000458,-49.998579l0,0c0,-5.522876 4.104064,-10.000052 9.166685,-10.000052l0,-0.000002z" fill="#9dba5e" stroke-width="3" stroke="#d0dcae"></path>
        <g>
            <rect width="15" height="51" x="312" y="87" fill="#475166" stroke-width="3" stroke="#a6aeba"></rect>
            <g>
                <path d="m350.972248,97.825039c-15.361947,15.361947 -39.125936,18.490392 -57.940313,7.628389c-18.814376,-10.862693 -27.987216,-33.007402 -22.364237,-53.992137c5.623001,-20.984593 24.639264,-35.576292 46.363974,-35.576292l33.940576,81.940043l0,-0.000003z" fill="#475166" stroke-width="3" stroke="#a6aeba"></path>
                <path d="m338.248484,63.304706l3.749997,-27.007346l12.499992,0l3.749996,27.007346l-19.999986,0z" fill="#475166" stroke-width="3" stroke="#a6aeba" transform="matrix(0.38831830779292525,0.9215253072123625,-0.9215253072123625,0.38831830779292525,258.9101317275289,-290.4573996159509)"></path>
                <circle r="11.439087" cx="367" cy="41" fill="#9dba5e" stroke-width="3" stroke="#a6aeba"></circle>
            </g>
        </g>
        <path d="m179.004293,126.99985l281.994948,0l0,0c18.698058,0 36.630192,6.128321 49.851657,17.036822c13.221465,10.908501 20.64923,25.703604 20.64923,41.130546l0,290.829884c0,0.001569 -0.001647,0.002893 -0.003549,0.002893l-422.99316,-0.002893l0,0c-0.00193,0 -0.003549,-0.001288 -0.003549,-0.002928l0.003549,-290.826944l0,0c0,-32.124955 31.564276,-58.167368 70.500873,-58.167368l0,-0.000012z" fill="#24a7b5" stroke-width="3" stroke="#7dbec0"></path>
        <path d="m135.000006,207.065675l108.955707,-36.025674l154.088559,0l108.955707,36.025674l0,50.948641l-108.955707,36.025678l-154.088559,0l-108.955707,-36.025678l0,-50.948641z" fill="#2184b8" stroke-width="3" stroke="#5b9db5"></path>
        <g>
            <ellipse rx="39" ry="54.999998" cx="245" cy="231.999997" fill="#f6fbf9" stroke-width="3" stroke="#475166"></ellipse>
            <circle r="19.79899" cx="246" cy="236" stroke-width="3" stroke="#a6aeba"></circle>
        </g>
        <g>
            <ellipse rx="39" ry="54.999998" cx="397" cy="232.999997" fill="#f6fbf9" stroke-width="3" stroke="#475166"></ellipse>
            <circle r="19.79899" cx="398" cy="236" stroke-width="3" stroke="#a6aeba"></circle>
        </g>
        <path d="m146.799159,370.99482l30.654826,-30.654843l30.659888,30.654843l-30.659888,30.654896l-30.654826,-30.654896zm-34.519141,34.718616l30.659897,-30.654835l30.654839,30.654835l-30.654839,30.659972l-30.659897,-30.659972zm69.690239,0.626117l30.65995,-30.649861l30.649803,30.649861l-30.649803,30.659875l-30.65995,-30.659875zm-34.509175,34.72366l30.649821,-30.654883l30.659998,30.654883l-30.659998,30.655073l-30.649821,-30.655073z" fill="#2184b8" stroke-width="3" stroke="#5b9db5"></path>
        <path d="m431.019145,371.465691l30.654826,-30.654843l30.659888,30.654843l-30.659888,30.654896l-30.654826,-30.654896zm-34.519141,34.718616l30.659897,-30.654835l30.654839,30.654835l-30.654839,30.659972l-30.659897,-30.659972zm69.690239,0.626117l30.65995,-30.649861l30.649803,30.649861l-30.649803,30.659875l-30.65995,-30.659875zm-34.509175,34.72366l30.649821,-30.654883l30.659998,30.654883l-30.659998,30.655073l-30.649821,-30.655073z" fill="#2184b8" stroke-width="3" stroke="#5b9db5"></path>
        <path d="m313.5,287.204936l6.500015,0l0,0c3.589859,0 6.500015,32.907077 6.500015,73.500015c0,40.592944 -2.910155,73.500015 -6.500015,73.500015l-6.500015,0l0,-147.00003z" stroke-width="3" stroke="#475166" transform="matrix(6.123233995736766e-17,1,-1,6.123233995736766e-17,680.7049407958984,40.70494079589844)"></path>
    </g>
</svg>